<mxfile host="app.diagrams.net" modified="2022-09-01T17:06:04.317Z" agent="5.0 (Windows NT 10.0; Win64; x64) AppleWebKit/537.36 (KHTML, like Gecko) Chrome/104.0.5112.102 Safari/537.36" etag="JMxvDz2bCkVUnWQoDh39" version="20.2.7" type="github">
  <diagram id="KdartlnSBbIz40rtFMby" name="Page-1">
    <mxGraphModel dx="1502" dy="714" grid="1" gridSize="10" guides="1" tooltips="1" connect="1" arrows="1" fold="1" page="1" pageScale="1" pageWidth="850" pageHeight="1100" math="0" shadow="0">
      <root>
        <mxCell id="0" />
        <mxCell id="1" parent="0" />
      </root>
    </mxGraphModel>
  </diagram>
</mxfile>
